<svg width="1616" height="960" viewBox="0 0 1616 960" fill="none" xmlns="http://www.w3.org/2000/svg">
<g clip-path="url(#clip0_2_462)">
<rect width="1616" height="960" fill="black"/>
<path opacity="0.217391" d="M2024.45 1391.87C2030.44 1400.8 2041.32 1404.69 2050.93 1401.35L2474.04 1253.94C2479.54 1252.02 2484 1247.92 2486.47 1242.52L2759.94 644.87C2761.86 640.671 2762.48 635.908 2761.71 631.212L2665.64 46.0967C2664.2 37.2882 2658.08 29.8583 2649.86 26.9169L2273.57 -107.716C2265.35 -110.657 2256.43 -108.603 2250.56 -102.413L1860.51 308.778C1857.38 312.078 1855.34 316.329 1854.65 320.97L1756.88 981.482C1755.99 987.454 1757.41 993.655 1760.84 998.764L2024.45 1391.87Z" stroke="url(#paint0_linear_2_462)" stroke-opacity="0.2" stroke-width="4"/>
<path opacity="0.231884" d="M1961.18 1379.67C1966.7 1388.84 1977.24 1393.29 1986.91 1390.55L2413.46 1269.56C2419.07 1267.97 2423.75 1264.11 2426.5 1258.82L2725.15 684.064C2727.3 679.932 2728.15 675.151 2727.59 670.365L2659.21 86.3059C2658.17 77.4477 2652.46 69.7192 2644.45 66.3332L2277.22 -88.8928C2269.2 -92.2788 2260.26 -90.7432 2254.11 -84.9245L1848.38 298.729C1845.05 301.874 1842.78 306.053 1841.87 310.706L1714.55 957.885C1713.38 963.844 1714.52 970.158 1717.72 975.472L1961.18 1379.67Z" stroke="url(#paint1_linear_2_462)" stroke-opacity="0.2" stroke-width="4"/>
<path opacity="0.246377" d="M1899.34 1365.81C1904.39 1375.18 1914.56 1380.16 1924.25 1378.03L2352.91 1283.43C2358.61 1282.17 2363.5 1278.57 2366.53 1273.4L2688.94 722.808C2691.31 718.753 2692.4 713.962 2692.06 709.091L2650.99 127.666C2650.37 118.782 2645.07 110.785 2637.3 106.973L2280.03 -68.1832C2272.26 -71.9949 2263.32 -70.975 2256.9 -65.5443L1837.03 289.902C1833.51 292.88 1831.01 296.978 1829.86 301.634L1674.01 933.888C1672.55 939.821 1673.39 946.236 1676.36 951.743L1899.34 1365.81Z" stroke="url(#paint2_linear_2_462)" stroke-opacity="0.2" stroke-width="4"/>
<path opacity="0.26087" d="M1839.01 1350.4C1843.57 1359.93 1853.34 1365.41 1863.02 1363.87L2292.47 1295.58C2298.25 1294.66 2303.34 1291.32 2306.64 1286.3L2651.33 761.019C2653.93 757.051 2655.27 752.257 2655.14 747.309L2640.97 170.055C2640.75 161.171 2635.89 152.935 2628.37 148.717L2281.93 -45.6587C2274.41 -49.8757 2265.5 -49.3661 2258.85 -44.3384L1826.4 282.332C1822.7 285.132 1819.96 289.139 1818.57 293.79L1635.25 909.604C1633.5 915.498 1634.04 922.001 1636.76 927.688L1839.01 1350.4Z" stroke="url(#paint3_linear_2_462)" stroke-opacity="0.2" stroke-width="4"/>
<path opacity="0.275362" d="M1780.25 1333.54C1784.32 1343.19 1793.66 1349.13 1803.29 1348.18L2232.22 1306.03C2238.06 1305.45 2243.35 1302.39 2246.92 1297.52L2612.36 798.614C2615.19 794.744 2616.78 789.958 2616.88 784.941L2629.08 213.352C2629.27 204.491 2624.85 196.047 2617.62 191.447L2282.83 -21.3938C2275.59 -25.9945 2266.74 -25.9881 2259.87 -21.3773L1816.43 276.052C1812.54 278.662 1809.56 282.566 1807.94 287.203L1598.28 885.147C1596.23 890.988 1596.47 897.563 1598.94 903.419L1780.25 1333.54Z" stroke="url(#paint4_linear_2_462)" stroke-opacity="0.2" stroke-width="4"/>
<path opacity="0.289855" d="M1723.11 1315.33C1726.69 1325.08 1735.58 1331.44 1745.12 1331.08L2172.25 1314.8C2178.13 1314.58 2183.6 1311.8 2187.44 1307.1L2572.07 835.515C2575.14 831.756 2576.97 826.989 2577.32 821.911L2615.32 257.434C2615.92 248.62 2611.94 240 2605.01 235.039L2282.66 4.53268C2275.73 -0.428893 2266.96 -0.916892 2259.89 3.26492L1807.04 271.09C1802.97 273.499 1799.76 277.287 1797.89 281.9L1563.09 860.629C1560.75 866.403 1560.67 873.036 1562.88 879.047L1723.11 1315.33Z" stroke="url(#paint5_linear_2_462)" stroke-opacity="0.2" stroke-width="4"/>
<path opacity="0.304348" d="M1667.63 1295.9C1670.72 1305.71 1679.15 1312.45 1688.58 1312.66L2112.63 1321.94C2118.54 1322.07 2124.18 1319.59 2128.28 1315.07L2530.51 871.646C2533.81 868.011 2535.9 863.274 2536.49 858.146L2599.66 302.177C2600.65 293.434 2597.14 284.669 2590.51 279.37L2281.36 32.039C2274.74 26.74 2266.08 25.768 2258.84 29.51L1798.17 267.471C1793.92 269.666 1790.48 273.326 1788.36 277.902L1529.67 836.164C1527.03 841.854 1526.64 848.529 1528.58 854.681L1667.63 1295.9Z" stroke="url(#paint6_linear_2_462)" stroke-opacity="0.2" stroke-width="4"/>
<path opacity="0.318841" d="M1613.87 1275.36C1616.48 1285.19 1624.42 1292.27 1633.7 1293.04L2053.43 1327.47C2059.35 1327.96 2065.15 1325.79 2069.51 1321.48L2487.72 906.934C2491.25 903.437 2493.61 898.744 2494.44 893.576L2582.07 347.456C2583.46 338.808 2580.41 329.927 2574.11 324.315L2278.86 61.0392C2272.57 55.4266 2264.04 53.9822 2256.65 57.2752L1789.75 265.215C1785.34 267.183 1781.66 270.701 1779.28 275.227L1498 811.861C1495.07 817.452 1494.35 824.151 1496.01 830.428L1613.87 1275.36Z" stroke="url(#paint7_linear_2_462)" stroke-opacity="0.2" stroke-width="4"/>
<path opacity="0.333333" d="M1561.86 1253.81C1563.99 1263.64 1571.44 1271.03 1580.54 1272.33L1994.74 1331.45C2000.65 1332.29 2006.6 1330.45 2011.2 1326.35L2443.75 941.309C2447.51 937.965 2450.14 933.33 2451.22 928.134L2562.57 393.148C2564.34 384.616 2561.75 375.651 2555.8 369.749L2275.1 91.4455C2269.15 85.5436 2260.78 83.6395 2253.26 86.4759L1781.72 264.338C1777.14 266.065 1773.23 269.426 1770.6 273.889L1468.06 787.829C1464.83 793.303 1463.79 800.008 1465.17 806.396L1561.86 1253.81Z" stroke="url(#paint8_linear_2_462)" stroke-opacity="0.2" stroke-width="4"/>
<path opacity="0.347826" d="M1511.63 1231.37C1513.28 1241.17 1520.24 1248.84 1529.14 1250.66L1936.61 1333.91C1942.5 1335.11 1948.58 1333.6 1953.42 1329.74L2398.66 974.707C2402.65 971.531 2405.54 966.969 2406.88 961.758L2541.13 439.129C2543.28 430.736 2541.15 421.716 2535.55 415.548L2270.03 123.168C2264.43 117 2256.23 114.65 2248.61 117.024L1773.99 264.851C1769.26 266.325 1765.12 269.512 1762.23 273.898L1439.81 764.173C1436.3 769.514 1434.93 776.206 1436.03 782.689L1511.63 1231.37Z" stroke="url(#paint9_linear_2_462)" stroke-opacity="0.2" stroke-width="4"/>
<path opacity="0.362319" d="M1463.2 1208.17C1464.39 1217.91 1470.85 1225.81 1479.53 1228.13L1879.12 1334.9C1884.96 1336.47 1891.15 1335.3 1896.24 1331.68L2352.51 1007.06C2356.72 1004.07 2359.88 999.599 2361.48 994.388L2517.76 485.275C2520.29 477.043 2518.61 467.996 2513.37 461.587L2263.59 156.112C2258.35 149.703 2250.35 146.921 2242.65 148.828L1766.5 266.761L1766.11 264.728L1766.5 266.761C1761.63 267.968 1757.26 270.966 1754.12 275.259L1413.24 740.999C1409.44 746.187 1407.74 752.847 1408.54 759.408L1463.2 1208.17Z" stroke="url(#paint10_linear_2_462)" stroke-opacity="0.2" stroke-width="4"/>
<path opacity="0.376812" d="M1416.61 1184.32C1417.34 1193.97 1423.3 1202.08 1431.73 1204.88L1822.33 1334.49C1828.11 1336.41 1834.4 1335.6 1839.71 1332.25L2305.35 1038.32C2309.78 1035.53 2313.21 1031.17 2315.08 1025.97L2492.49 531.466C2495.38 523.415 2494.15 514.368 2489.28 507.741L2255.75 190.185C2250.87 183.557 2243.09 180.359 2235.34 181.796L1759.19 270.071C1754.19 270.999 1749.59 273.791 1746.2 277.974L1388.29 718.406C1384.21 723.424 1382.18 730.031 1382.68 736.653L1416.61 1184.32Z" stroke="url(#paint11_linear_2_462)" stroke-opacity="0.2" stroke-width="4"/>
<path opacity="0.391304" d="M1371.84 1159.93C1372.13 1169.48 1377.6 1177.77 1385.76 1181.02L1766.3 1332.73C1772 1335 1778.37 1334.54 1783.89 1331.48L2257.26 1068.43C2261.89 1065.85 2265.59 1061.61 2267.72 1056.45L2465.31 577.583C2468.55 569.732 2467.78 560.712 2463.27 553.889L2246.46 225.289C2241.96 218.466 2234.41 214.866 2226.63 215.832L1751.98 274.78C1746.85 275.416 1742.05 277.985 1738.4 282.04L1364.92 696.493C1360.57 701.321 1358.21 707.855 1358.41 714.521L1371.84 1159.93Z" stroke="url(#paint12_linear_2_462)" stroke-opacity="0.2" stroke-width="4"/>
<path opacity="0.405797" d="M1328.93 1135.13C1328.78 1144.55 1333.76 1152.98 1341.63 1156.67L1711.09 1329.66C1716.69 1332.28 1723.12 1332.2 1728.83 1329.44L2208.28 1097.33C2213.12 1094.99 2217.09 1090.9 2219.49 1085.78L2436.26 623.507C2439.84 615.875 2439.51 606.906 2435.38 599.91L2235.7 261.326C2231.57 254.33 2224.27 250.344 2216.48 250.84L1744.8 280.882C1739.57 281.215 1734.56 283.543 1730.66 287.452L1343.08 675.352C1338.47 679.972 1335.78 686.411 1335.68 693.103L1328.93 1135.13Z" stroke="url(#paint13_linear_2_462)" stroke-opacity="0.2" stroke-width="4"/>
<path opacity="0.42029" d="M1287.86 1110.02C1287.3 1119.3 1291.78 1127.85 1299.36 1131.95L1656.75 1325.37C1662.23 1328.34 1668.7 1328.63 1674.6 1326.18L2158.51 1124.99C2163.53 1122.9 2167.76 1118.97 2170.43 1113.92L2405.36 669.123C2409.27 661.728 2409.37 652.833 2405.62 645.685L2223.43 298.198C2219.68 291.05 2212.63 286.695 2204.87 286.722L1737.58 288.367C1732.27 288.386 1727.06 290.456 1722.91 294.201L1322.73 655.073C1317.85 659.467 1314.84 665.79 1314.44 672.49L1287.86 1110.02Z" stroke="url(#paint14_linear_2_462)" stroke-opacity="0.2" stroke-width="4"/>
<path opacity="0.434783" d="M1248.63 1084.74C1247.66 1093.85 1251.67 1102.5 1258.93 1106.99L1603.34 1319.92C1608.67 1323.21 1615.17 1323.89 1621.23 1321.77L2107.99 1151.36C2113.19 1149.54 2117.68 1145.79 2120.61 1140.82L2372.66 714.319C2376.88 707.179 2377.4 698.38 2374.03 691.1L2209.63 335.806C2206.26 328.526 2199.49 323.817 2191.76 323.379L1730.26 297.221C1724.88 296.916 1719.5 298.711 1715.1 302.273L1303.79 635.743C1298.67 639.893 1295.34 646.078 1294.63 652.768L1248.63 1084.74Z" stroke="url(#paint15_linear_2_462)" stroke-opacity="0.2" stroke-width="4"/>
<path opacity="0.449275" d="M1211.24 1059.38C1209.87 1068.31 1213.4 1077.04 1220.34 1081.9L1550.88 1313.36C1556.06 1316.98 1562.56 1318.04 1568.76 1316.26L2056.81 1176.4C2062.17 1174.86 2066.9 1171.33 2070.11 1166.46L2338.18 758.986C2342.7 752.115 2343.63 743.433 2340.64 736.041L2194.28 374.049C2191.29 366.657 2184.8 361.61 2177.14 360.712L1722.77 307.425C1717.34 306.788 1711.79 308.293 1707.17 311.652L1286.21 617.443C1280.86 621.329 1277.22 627.355 1276.2 634.017L1211.24 1059.38Z" stroke="url(#paint16_linear_2_462)" stroke-opacity="0.2" stroke-width="4"/>
<path opacity="0.463768" d="M1175.66 1034.07C1173.91 1042.81 1176.97 1051.59 1183.58 1056.8L1499.44 1305.77C1504.44 1309.72 1510.92 1311.16 1517.25 1309.74L2005.04 1200.09C2010.55 1198.85 2015.51 1195.54 2018.97 1190.8L2301.97 803.019C2306.78 796.432 2308.11 787.885 2305.5 780.4L2177.36 412.827C2174.75 405.342 2168.57 399.974 2161 398.621L1715.05 318.957C1709.59 317.983 1703.89 319.181 1699.05 322.318L1269.92 600.248C1264.35 603.854 1260.41 609.701 1259.09 616.317L1175.66 1034.07Z" stroke="url(#paint17_linear_2_462)" stroke-opacity="0.2" stroke-width="4"/>
<path opacity="0.478261" d="M1141.87 1008.92C1139.76 1017.45 1142.36 1026.27 1148.62 1031.8L1449.04 1297.23C1453.85 1301.48 1460.29 1303.31 1466.72 1302.25L1952.75 1222.41C1958.39 1221.48 1963.57 1218.41 1967.29 1213.81L2264.09 846.314C2269.16 840.026 2270.89 831.632 2268.66 824.071L2158.88 452.041C2156.65 444.48 2150.78 438.806 2143.31 437.006L1707.03 331.792C1701.57 330.475 1695.73 331.353 1690.68 334.25L1254.85 584.231C1249.08 587.54 1244.85 593.186 1243.23 599.738L1141.87 1008.92Z" stroke="url(#paint18_linear_2_462)" stroke-opacity="0.2" stroke-width="4"/>
<path opacity="0.492754" d="M1109.85 984.028C1107.38 992.341 1109.53 1001.18 1115.44 1007.02L1399.72 1287.8C1404.32 1292.35 1410.7 1294.56 1417.21 1293.88L1900.02 1243.32C1905.76 1242.72 1911.16 1239.91 1915.12 1235.48L2224.58 888.775C2229.92 882.798 2232.02 874.573 2230.17 866.954L2138.83 491.591C2136.98 483.971 2131.42 478.007 2124.08 475.768L1698.65 345.9C1693.21 344.237 1687.26 344.781 1682.02 347.422L1240.94 569.457C1234.98 572.455 1230.47 577.881 1228.55 584.351L1109.85 984.028Z" stroke="url(#paint19_linear_2_462)" stroke-opacity="0.2" stroke-width="4"/>
<path opacity="0.507246" d="M1079.56 959.511C1076.75 967.598 1078.45 976.443 1084.01 982.57L1351.51 1277.56C1355.89 1282.39 1362.17 1284.98 1368.75 1284.68L1846.92 1262.81C1852.75 1262.55 1858.34 1260.03 1862.53 1255.77L2183.52 930.308C2189.09 924.654 2191.57 916.613 2190.09 908.951L2117.21 531.377C2115.73 523.715 2110.5 517.478 2103.31 514.81L1689.86 361.247C1684.45 359.238 1678.42 359.438 1673 361.804L1228.09 555.988C1221.97 558.66 1217.19 563.846 1214.97 570.217L1079.56 959.511Z" stroke="url(#paint20_linear_2_462)" stroke-opacity="0.2" stroke-width="4"/>
<path opacity="0.521739" d="M1050.97 935.469C1047.82 943.32 1049.09 952.155 1054.29 958.552L1304.44 1266.58C1308.58 1271.68 1314.75 1274.65 1321.36 1274.74L1793.53 1280.88C1799.42 1280.96 1805.18 1278.74 1809.6 1274.68L2140.96 970.824C2146.76 965.503 2149.59 957.66 2148.49 949.971L2094.02 571.303C2092.91 563.614 2088.02 557.119 2081.01 554.032L1680.6 377.797C1675.25 375.444 1669.15 375.29 1663.57 377.367L1216.24 543.879C1209.97 546.212 1204.94 551.142 1202.43 557.396L1050.97 935.469Z" stroke="url(#paint21_linear_2_462)" stroke-opacity="0.2" stroke-width="4"/>
<path opacity="0.536232" d="M1024.03 912.005C1020.56 919.612 1021.4 928.424 1026.23 935.071L1258.52 1254.94C1262.41 1260.29 1268.45 1263.64 1275.07 1264.11L1739.92 1297.52C1745.85 1297.95 1751.76 1296.04 1756.4 1292.2L2096.97 1010.24C2102.98 1005.26 2106.16 997.629 2105.42 989.928L2069.28 611.273C2068.55 603.572 2064 596.834 2057.18 593.341L1670.81 395.511C1665.55 392.817 1659.41 392.303 1653.69 394.077L1205.31 533.181C1198.91 535.164 1193.64 539.82 1190.85 545.942L1024.03 912.005Z" stroke="url(#paint22_linear_2_462)" stroke-opacity="0.2" stroke-width="4"/>
<path opacity="0.550725" d="M998.687 889.213C994.909 896.568 995.327 905.344 999.782 912.225L1213.78 1242.72C1217.4 1248.3 1223.28 1252.01 1229.9 1252.88L1686.17 1312.73C1692.12 1313.51 1698.16 1311.93 1702.99 1308.32L2051.62 1048.47C2057.83 1043.85 2061.34 1036.44 2060.98 1028.74L2043.01 651.191C2042.64 643.492 2038.45 636.528 2031.83 632.641L1660.45 414.347C1655.29 411.317 1649.14 410.438 1643.3 411.898L1195.2 523.936C1188.71 525.561 1183.21 529.928 1180.14 535.9L998.687 889.213Z" stroke="url(#paint23_linear_2_462)" stroke-opacity="0.2" stroke-width="4"/>
<path opacity="0.565217" d="M974.899 867.187C970.82 874.283 970.82 883.012 974.899 890.109L1170.23 1229.98C1173.57 1235.79 1179.27 1239.85 1185.85 1241.11L1632.36 1326.5C1638.29 1327.64 1644.43 1326.39 1649.45 1323.04L2005 1085.46C2011.38 1081.19 2015.22 1074.01 2015.22 1066.33V690.964C2015.22 683.283 2011.38 676.108 2005 671.841L1649.45 434.258C1644.43 430.901 1638.29 429.656 1632.36 430.791L1185.85 516.185C1179.27 517.444 1173.57 521.508 1170.23 527.315L974.899 867.187Z" stroke="url(#paint24_linear_2_462)" stroke-opacity="0.2" stroke-width="4"/>
<path opacity="0.57971" d="M952.604 846.017C948.235 852.847 947.822 861.517 951.519 868.812L1127.88 1216.81C1130.93 1222.82 1136.43 1227.23 1142.95 1228.87L1578.54 1338.86C1584.44 1340.35 1590.66 1339.45 1595.86 1336.36L1957.17 1121.11C1963.72 1117.21 1967.87 1110.28 1968.23 1102.63L1985.94 730.503C1986.31 722.852 1982.84 715.484 1976.7 710.849L1637.79 455.198C1632.92 451.525 1626.82 449.913 1620.81 450.716L1177.16 509.961C1170.52 510.847 1164.63 514.596 1161.03 520.223L952.604 846.017Z" stroke="url(#paint25_linear_2_462)" stroke-opacity="0.2" stroke-width="4"/>
<path opacity="0.594203" d="M931.74 825.787C927.089 832.344 926.268 840.943 929.58 848.421L1086.73 1203.29C1089.48 1209.48 1094.76 1214.22 1101.19 1216.24L1524.8 1349.81C1530.64 1351.65 1536.92 1351.1 1542.26 1348.28L1908.23 1155.39C1914.92 1151.86 1919.37 1145.19 1920.1 1137.58L1955.21 769.718C1955.94 762.112 1952.85 754.566 1946.96 749.581L1625.42 477.118C1620.72 473.14 1614.68 471.166 1608.63 471.629L1169.05 505.29C1162.38 505.801 1156.31 509.223 1152.46 514.656L931.74 825.787Z" stroke="url(#paint26_linear_2_462)" stroke-opacity="0.2" stroke-width="4"/>
<path opacity="0.608696" d="M912.243 806.578C907.319 812.853 906.094 821.37 909.015 829.014L1046.79 1189.48C1049.22 1195.84 1054.27 1200.89 1060.59 1203.29L1471.21 1359.36C1476.96 1361.55 1483.28 1361.36 1488.75 1358.83L1858.25 1188.22C1865.08 1185.07 1869.82 1178.66 1870.9 1171.11L1923.05 808.525C1924.14 800.977 1921.43 793.271 1915.82 787.95L1612.29 499.965C1607.79 495.696 1601.84 493.365 1595.76 493.487L1161.43 502.195C1154.74 502.329 1148.53 505.414 1144.43 510.639L912.243 806.578Z" stroke="url(#paint27_linear_2_462)" stroke-opacity="0.2" stroke-width="4"/>
<path opacity="0.623188" d="M894.041 788.463C888.854 794.45 887.228 802.874 889.755 810.667L1008.06 1175.46C1010.17 1181.97 1014.95 1187.32 1021.14 1190.09L1417.84 1367.55C1423.48 1370.07 1429.8 1370.24 1435.39 1368L1807.33 1219.56C1814.27 1216.79 1819.29 1210.66 1820.73 1203.19L1889.51 846.842C1890.96 839.366 1888.64 831.516 1883.32 825.876L1598.37 523.687C1594.08 519.143 1588.25 516.463 1582.17 516.242L1154.22 500.691C1147.54 500.448 1141.2 503.19 1136.86 508.193L894.041 788.463Z" stroke="url(#paint28_linear_2_462)" stroke-opacity="0.2" stroke-width="4"/>
<path opacity="0.637681" d="M877.063 771.513C871.621 777.205 869.598 785.522 871.726 793.447L970.524 1161.31C972.307 1167.95 976.813 1173.57 982.85 1176.7L1364.74 1374.39C1370.25 1377.24 1376.55 1377.76 1382.24 1375.83L1755.54 1249.37C1762.58 1246.98 1767.87 1241.14 1769.67 1233.75L1854.63 884.587C1856.43 877.198 1854.51 869.222 1849.49 863.281L1583.63 548.228C1579.57 543.427 1573.88 540.408 1567.82 539.845L1147.32 500.789C1140.68 500.171 1134.22 502.563 1129.66 507.332L877.063 771.513Z" stroke="url(#paint29_linear_2_462)" stroke-opacity="0.2" stroke-width="4"/>
<path opacity="0.652174" d="M861.233 755.793C855.546 761.181 853.127 769.379 854.852 777.419L934.182 1147.1C935.63 1153.84 939.842 1159.73 945.705 1163.2L1311.99 1379.91C1317.35 1383.08 1323.61 1383.95 1329.37 1382.34L1702.99 1277.6C1710.11 1275.6 1715.66 1270.05 1717.81 1262.76L1818.45 921.686C1820.6 914.397 1819.08 906.315 1814.38 900.09L1568.03 573.533C1564.23 568.492 1558.7 565.146 1552.68 564.244L1140.66 502.494C1134.07 501.505 1127.52 503.542 1122.74 508.064L861.233 755.793Z" stroke="url(#paint30_linear_2_462)" stroke-opacity="0.2" stroke-width="4"/>
<path opacity="0.666667" d="M846.471 741.362C840.547 746.439 837.736 754.502 839.054 762.639L899.018 1132.89C900.125 1139.73 904.029 1145.86 909.698 1149.65L1259.65 1384.15C1264.83 1387.62 1271.03 1388.84 1276.85 1387.54L1649.77 1304.22C1656.95 1302.61 1662.75 1297.36 1665.25 1290.19L1781.03 958.066C1783.53 950.894 1782.41 942.723 1778.05 936.235L1551.55 599.545C1548.01 594.284 1542.67 590.626 1536.71 589.389L1134.15 505.806C1127.62 504.452 1121 506.129 1116.02 510.394L846.471 741.362Z" stroke="url(#paint31_linear_2_462)" stroke-opacity="0.2" stroke-width="4"/>
<path opacity="0.681159" d="M832.697 728.274C826.546 733.029 823.346 740.944 824.252 749.159L865.018 1118.77C865.779 1125.67 869.362 1132.02 874.819 1136.13L1207.78 1387.15C1212.76 1390.9 1218.88 1392.46 1224.74 1391.48L1595.96 1329.21C1603.2 1327.99 1609.23 1323.05 1612.07 1316.01L1742.41 993.659C1745.26 986.618 1744.55 978.38 1740.53 971.646L1534.17 626.206C1530.91 620.744 1525.76 616.788 1519.89 615.224L1127.69 510.718C1121.27 509.005 1114.58 510.321 1109.41 514.318L832.697 728.274Z" stroke="url(#paint32_linear_2_462)" stroke-opacity="0.2" stroke-width="4"/>
<path opacity="0.695652" d="M819.825 716.575C813.458 721.001 809.872 728.751 810.363 737.025L832.162 1104.79C832.574 1111.74 835.823 1118.28 841.05 1122.7L1156.43 1388.93C1161.21 1392.96 1167.21 1394.85 1173.11 1394.18L1541.66 1352.54C1548.93 1351.72 1555.19 1347.1 1558.38 1340.21L1702.66 1028.4C1705.85 1021.51 1705.56 1013.22 1701.89 1006.26L1515.86 653.457C1512.88 647.815 1507.96 643.578 1502.19 641.693L1121.22 517.22C1114.9 515.157 1108.18 516.111 1102.83 519.829L819.825 716.575Z" stroke="url(#paint33_linear_2_462)" stroke-opacity="0.2" stroke-width="4"/>
<path opacity="0.710145" d="M807.772 706.307C801.2 710.395 797.231 717.964 797.302 726.275L800.427 1091.02C800.487 1098 803.392 1104.72 808.375 1109.42L1105.67 1389.54C1110.22 1393.82 1116.1 1396.04 1122 1395.69L1486.97 1374.2C1494.26 1373.77 1500.73 1369.49 1504.25 1362.76L1661.83 1062.23C1665.36 1055.5 1665.49 1047.19 1662.19 1040.03L1496.6 681.239C1493.93 675.438 1489.24 670.936 1483.59 668.741L1114.64 525.296C1108.45 522.892 1101.71 523.483 1096.2 526.915L807.772 706.307Z" stroke="url(#paint34_linear_2_462)" stroke-opacity="0.2" stroke-width="4"/>
<path opacity="0.724638" d="M796.448 697.506C789.683 701.246 785.337 708.615 784.986 716.943L769.788 1077.53C769.494 1084.51 772.046 1091.39 776.77 1096.35L1055.54 1389.03C1059.85 1393.55 1065.59 1396.08 1071.49 1396.05L1431.98 1394.19C1439.27 1394.16 1445.93 1390.22 1449.8 1383.67L1619.98 1095.09C1623.85 1088.54 1624.4 1080.23 1621.47 1072.89L1476.39 709.492C1474.02 703.552 1469.58 698.805 1464.07 696.31L1107.87 534.924C1101.84 532.189 1095.09 532.42 1089.42 535.555L796.448 697.506Z" stroke="url(#paint35_linear_2_462)" stroke-opacity="0.2" stroke-width="4"/>
<path opacity="0.73913" d="M785.767 690.202C778.821 693.585 774.103 700.735 773.328 709.055L740.217 1064.37C739.568 1071.34 741.759 1078.35 746.212 1083.55L1006.1 1387.44C1010.16 1392.19 1015.74 1395.02 1021.61 1395.3L1376.78 1412.51C1384.05 1412.86 1390.91 1409.27 1395.1 1402.92L1577.19 1126.94C1581.38 1120.59 1582.36 1112.3 1579.81 1104.79L1455.2 738.157C1453.14 732.1 1448.97 727.124 1443.61 724.339L1100.84 546.078C1094.97 543.024 1088.24 542.896 1082.42 545.728L785.767 690.202Z" stroke="url(#paint36_linear_2_462)" stroke-opacity="0.2" stroke-width="4"/>
<path opacity="0.753623" d="M775.638 684.417C768.525 687.434 763.443 694.345 762.242 702.634L711.682 1051.61C710.679 1058.54 712.503 1065.66 716.674 1071.1L957.388 1384.82C961.187 1389.78 966.604 1392.9 972.434 1393.49L1321.46 1429.15C1328.7 1429.89 1335.73 1426.66 1340.24 1420.53L1533.51 1157.71C1538.02 1151.58 1539.43 1143.34 1537.27 1135.7L1433.03 767.175C1431.29 761.019 1427.39 755.834 1422.2 752.771L1093.47 558.728C1087.77 555.366 1081.07 554.882 1075.12 557.403L775.638 684.417Z" stroke="url(#paint37_linear_2_462)" stroke-opacity="0.2" stroke-width="4"/>
<path opacity="0.768116" d="M765.972 680.169C758.707 682.81 753.269 689.46 751.643 697.693L684.15 1039.3C682.793 1046.17 684.246 1053.38 688.124 1059.03L909.457 1381.24C912.988 1386.38 918.223 1389.77 924.001 1390.68L1266.13 1444.13C1273.31 1445.25 1280.5 1442.4 1285.32 1436.5L1489.02 1187.39C1493.84 1181.49 1495.67 1173.32 1493.91 1165.57L1409.87 796.485C1408.45 790.251 1404.83 784.873 1399.82 781.544L1085.68 572.839C1080.17 569.181 1073.51 568.344 1067.45 570.548L765.972 680.169Z" stroke="url(#paint38_linear_2_462)" stroke-opacity="0.2" stroke-width="4"/>
<path opacity="0.782609" d="M756.679 677.467C749.278 679.725 743.496 686.093 741.445 694.242L657.585 1027.5C655.877 1034.29 656.954 1041.56 660.532 1047.4L862.347 1376.73C865.602 1382.04 870.645 1385.7 876.359 1386.91L1210.86 1457.47C1217.98 1458.97 1225.31 1456.49 1230.43 1450.85L1443.79 1215.92C1448.91 1210.27 1451.16 1202.2 1449.8 1194.36L1385.72 826.028C1384.62 819.735 1381.3 814.182 1376.47 810.599L1077.4 588.37C1072.09 584.429 1065.49 583.244 1059.32 585.125L756.679 677.467Z" stroke="url(#paint39_linear_2_462)" stroke-opacity="0.2" stroke-width="4"/>
<path opacity="0.797101" d="M747.669 676.316C740.15 678.183 734.035 684.245 731.563 692.284L631.948 1016.25C629.892 1022.94 630.591 1030.25 633.861 1036.27L816.098 1371.36C819.071 1376.82 823.912 1380.74 829.551 1382.24L1155.74 1469.19C1162.78 1471.07 1170.24 1468.97 1175.65 1463.6L1397.88 1243.27C1403.29 1237.9 1405.97 1229.95 1405.01 1222.05L1360.57 855.745C1359.81 849.412 1356.77 843.701 1352.15 839.874L1068.55 605.277C1063.46 601.067 1056.93 599.537 1050.68 601.089L747.669 676.316Z" stroke="url(#paint40_linear_2_462)" stroke-opacity="0.2" stroke-width="4"/>
<path opacity="0.811594" d="M738.85 676.715C731.232 678.183 724.8 683.918 721.912 691.818L607.196 1005.61C604.796 1012.17 605.116 1019.5 608.073 1025.67L770.745 1365.18C773.431 1370.79 778.061 1374.95 783.615 1376.74L1100.87 1479.32C1107.8 1481.56 1115.37 1479.87 1121.07 1474.79L1351.37 1269.43C1357.07 1264.35 1360.15 1256.55 1359.6 1248.61L1334.44 885.578C1334 879.222 1331.26 873.37 1326.84 869.311L1059.08 623.512C1054.22 619.045 1047.77 617.176 1041.44 618.396L738.85 676.715Z" stroke="url(#paint41_linear_2_462)" stroke-opacity="0.2" stroke-width="4"/>
<path opacity="0.826087" d="M730.138 678.654C722.441 679.718 715.709 685.103 712.412 692.835L583.29 995.608C580.551 1002.03 580.492 1009.36 583.129 1015.67L726.322 1358.26C728.717 1363.99 733.131 1368.38 738.59 1370.47L1046.32 1487.89C1053.14 1490.5 1060.8 1489.2 1066.76 1484.43L1304.34 1294.36C1310.3 1289.59 1313.78 1281.97 1313.64 1274.02L1307.31 915.469C1307.2 909.108 1304.77 903.129 1300.56 898.849L1048.92 643.023C1044.28 638.312 1037.94 636.109 1031.54 636.992L730.138 678.654Z" stroke="url(#paint42_linear_2_462)" stroke-opacity="0.2" stroke-width="4"/>
<path opacity="0.84058" d="M721.443 682.12C713.69 682.775 706.678 687.789 702.981 695.322L560.185 986.298C557.113 992.558 556.676 999.864 558.989 1006.29L682.86 1350.66C684.961 1356.5 689.152 1361.11 694.507 1363.48L992.177 1494.95C998.868 1497.9 1006.6 1497.01 1012.8 1492.57L1256.85 1318.06C1263.06 1313.62 1266.94 1306.21 1267.21 1298.27L1279.21 945.36C1279.43 939.011 1277.31 932.919 1273.31 928.429L1038 663.754C1033.61 658.812 1027.37 656.28 1020.93 656.824L721.443 682.12Z" stroke="url(#paint43_linear_2_462)" stroke-opacity="0.2" stroke-width="4"/>
<path opacity="0.855072" d="M712.681 687.093C704.893 687.336 697.625 691.956 693.54 699.262L537.832 977.714C534.434 983.79 533.621 991.052 535.606 997.586L640.385 1342.44C642.19 1348.38 646.152 1353.2 651.396 1355.85L938.523 1500.53C945.067 1503.83 952.842 1503.35 959.28 1499.26L1208.99 1340.51C1215.42 1336.41 1219.69 1329.24 1220.36 1321.35L1250.14 975.196C1250.68 968.874 1248.87 962.684 1245.1 957.993L1026.27 685.646C1022.13 680.485 1016.01 677.63 1009.53 677.832L712.681 687.093Z" stroke="url(#paint44_linear_2_462)" stroke-opacity="0.2" stroke-width="4"/>
<path opacity="0.869565" d="M703.768 693.546C695.969 693.376 688.471 697.583 684.012 704.631L516.187 969.889C512.471 975.762 511.284 982.958 512.939 989.581L598.922 1333.67C600.428 1339.69 604.156 1344.72 609.281 1347.64L885.43 1504.69C891.812 1508.32 899.614 1508.26 906.262 1504.53L1160.82 1361.7C1167.47 1357.97 1172.1 1351.06 1173.18 1343.24L1220.11 1004.92C1220.98 998.642 1219.48 992.366 1215.94 987.483L1013.68 708.636C1009.78 703.269 1003.8 700.097 997.299 699.955L703.768 693.546Z" stroke="url(#paint45_linear_2_462)" stroke-opacity="0.2" stroke-width="4"/>
<path opacity="0.884058" d="M694.624 701.449C686.839 700.866 679.137 704.642 674.322 711.402L495.199 962.856C491.175 968.506 489.618 975.617 490.94 982.311L558.49 1324.41C559.695 1330.51 563.185 1335.73 568.185 1338.91L832.971 1507.48C839.176 1511.43 846.981 1511.78 853.817 1508.43L1112.42 1381.65C1119.25 1378.3 1124.23 1371.67 1125.72 1363.95L1189.14 1034.48C1190.33 1028.26 1189.15 1021.91 1185.84 1016.84L1000.16 732.658C996.528 727.097 990.688 723.613 984.181 723.126L694.624 701.449Z" stroke="url(#paint46_linear_2_462)" stroke-opacity="0.2" stroke-width="4"/>
<path opacity="0.898551" d="M685.168 710.764C677.424 709.772 669.55 713.1 664.398 719.544L474.82 956.642C470.496 962.05 468.573 969.055 469.56 975.805L519.108 1314.73C520.008 1320.89 523.256 1326.3 528.125 1329.75L781.214 1508.95C787.227 1513.21 795.011 1513.99 802.011 1511.03L1063.86 1400.35C1070.86 1397.39 1076.17 1391.08 1078.05 1383.48L1157.24 1063.83C1158.76 1057.68 1157.89 1051.26 1154.81 1046.02L985.682 757.644C982.313 751.901 976.628 748.112 970.129 747.279L685.168 710.764Z" stroke="url(#paint47_linear_2_462)" stroke-opacity="0.2" stroke-width="4"/>
<path opacity="0.913043" d="M675.328 721.449C667.649 720.053 659.636 722.919 654.17 729.019L454.998 951.27C450.386 956.417 448.103 963.297 448.753 970.087L480.788 1304.69C481.383 1310.91 484.384 1316.5 489.116 1320.21L730.224 1509.18C736.032 1513.74 743.77 1514.93 750.909 1512.38L1015.21 1417.81C1022.35 1415.26 1027.98 1409.28 1030.24 1401.84L1124.43 1092.9C1126.28 1086.84 1125.72 1080.37 1122.89 1074.96L970.194 783.523C967.095 777.609 961.576 773.521 955.097 772.342L675.328 721.449Z" stroke="url(#paint48_linear_2_462)" stroke-opacity="0.2" stroke-width="4"/>
<path opacity="0.927536" d="M665.031 733.458C657.445 731.664 649.328 734.059 643.573 739.789L435.683 946.762C430.795 951.628 428.157 958.364 428.469 965.179L443.542 1294.37C443.828 1300.63 446.578 1306.4 451.168 1310.37L680.061 1508.23C685.65 1513.06 693.317 1514.67 700.569 1512.53L966.551 1434.05C973.802 1431.91 979.712 1426.3 982.359 1419.04L1090.74 1121.66C1092.91 1115.7 1092.68 1109.19 1090.08 1103.61L953.66 810.22C950.835 804.146 945.492 799.766 939.049 798.242L665.031 733.458Z" stroke="url(#paint49_linear_2_462)" stroke-opacity="0.2" stroke-width="4"/>
<path opacity="0.942029" d="M654.209 746.739C646.742 744.559 638.558 746.475 632.541 751.811L416.824 943.133C411.672 947.701 408.685 954.274 408.658 961.098L407.376 1283.84C407.351 1290.13 409.845 1296.07 414.286 1300.29L630.782 1506.17C636.14 1511.26 643.71 1513.28 651.045 1511.56L917.938 1449.09C925.273 1447.38 931.444 1442.15 934.457 1435.09L1056.19 1150.05C1058.69 1144.2 1058.77 1137.66 1056.42 1131.92L936.042 837.66C933.497 831.438 928.34 826.772 921.947 824.905L654.209 746.739Z" stroke="url(#paint50_linear_2_462)" stroke-opacity="0.2" stroke-width="4"/>
<path opacity="0.956522" d="M642.797 761.237C635.475 758.683 627.261 760.115 621.013 765.036L398.366 940.397C392.966 944.65 389.637 951.041 389.27 957.859L372.293 1273.15C371.953 1279.47 374.187 1285.57 378.474 1290.05L582.437 1503.07C587.552 1508.41 594.999 1510.82 602.39 1509.53L869.439 1462.96C876.829 1461.67 883.235 1456.84 886.6 1450.02L1020.8 1178.03C1023.62 1172.31 1024.03 1165.74 1021.94 1159.85L917.311 865.766C915.048 859.407 910.089 854.461 903.759 852.254L642.797 761.237Z" stroke="url(#paint51_linear_2_462)" stroke-opacity="0.2" stroke-width="4"/>
<path opacity="0.971014" d="M630.737 776.892C623.585 773.979 615.38 774.929 608.934 779.415L380.261 938.564C374.628 942.485 370.964 948.676 370.257 955.473L338.296 1262.39C337.637 1268.72 339.604 1274.99 343.732 1279.72L535.076 1499C539.937 1504.57 547.236 1507.38 554.652 1506.52L821.12 1475.68C828.535 1474.82 835.146 1470.41 838.849 1463.85L984.607 1205.55C987.752 1199.97 988.492 1193.39 986.652 1187.35L897.441 894.459C895.465 887.973 890.713 882.755 884.462 880.21L630.737 776.892Z" stroke="url(#paint52_linear_2_462)" stroke-opacity="0.2" stroke-width="4"/>
<path opacity="0.985507" d="M617.972 793.641C611.015 790.388 602.857 790.859 596.246 794.895L362.456 937.64C356.605 941.213 352.616 947.186 351.567 953.945L305.38 1251.61C304.397 1257.94 306.091 1264.38 310.054 1269.36L488.74 1494.06C493.338 1499.84 500.463 1503.01 507.874 1502.59L773.039 1487.28C780.45 1486.86 787.234 1482.88 791.258 1476.6L947.635 1232.57C951.104 1227.15 952.178 1220.56 950.599 1214.37L876.409 923.657C874.724 917.056 870.19 911.574 864.032 908.695L617.972 793.641Z" stroke="url(#paint53_linear_2_462)" stroke-opacity="0.2" stroke-width="4"/>
<path d="M604.45 811.42C597.71 807.846 589.638 807.846 582.899 811.42L344.898 937.629C338.848 940.837 334.542 946.574 333.152 953.28L273.538 1240.88C272.226 1247.22 273.639 1253.81 277.432 1259.04L443.466 1488.3C447.792 1494.28 454.72 1497.81 462.094 1497.81H725.254C732.629 1497.81 739.556 1494.28 743.882 1488.3L909.917 1259.04C913.709 1253.81 915.123 1247.22 913.81 1240.88L854.196 953.28C852.806 946.574 848.501 940.837 842.45 937.629L604.45 811.42Z" stroke="url(#paint54_linear_2_462)" stroke-opacity="0.2" stroke-width="4"/>
</g>
<defs>
<linearGradient id="paint0_linear_2_462" x1="2033.9" y1="1409.45" x2="2589.6" y2="-143.704" gradientUnits="userSpaceOnUse">
<stop stop-color="#FF1CF7"/>
<stop offset="1" stop-color="#00B0FF" stop-opacity="0.1"/>
</linearGradient>
<linearGradient id="paint1_linear_2_462" x1="1969.7" y1="1397.57" x2="2603.31" y2="-101.405" gradientUnits="userSpaceOnUse">
<stop stop-color="#FF1CF7"/>
<stop offset="1" stop-color="#00B0FF" stop-opacity="0.1"/>
</linearGradient>
<linearGradient id="paint2_linear_2_462" x1="1906.93" y1="1383.97" x2="2613.33" y2="-56.8929" gradientUnits="userSpaceOnUse">
<stop stop-color="#FF1CF7"/>
<stop offset="1" stop-color="#00B0FF" stop-opacity="0.1"/>
</linearGradient>
<linearGradient id="paint3_linear_2_462" x1="1845.65" y1="1368.73" x2="2619.55" y2="-10.6182" gradientUnits="userSpaceOnUse">
<stop stop-color="#FF1CF7"/>
<stop offset="1" stop-color="#00B0FF" stop-opacity="0.1"/>
</linearGradient>
<linearGradient id="paint4_linear_2_462" x1="1785.94" y1="1351.98" x2="2621.95" y2="36.9753" gradientUnits="userSpaceOnUse">
<stop stop-color="#FF1CF7"/>
<stop offset="1" stop-color="#00B0FF" stop-opacity="0.1"/>
</linearGradient>
<linearGradient id="paint5_linear_2_462" x1="1727.86" y1="1333.82" x2="2620.55" y2="85.463" gradientUnits="userSpaceOnUse">
<stop stop-color="#FF1CF7"/>
<stop offset="1" stop-color="#00B0FF" stop-opacity="0.1"/>
</linearGradient>
<linearGradient id="paint6_linear_2_462" x1="1671.45" y1="1314.37" x2="2615.42" y2="134.447" gradientUnits="userSpaceOnUse">
<stop stop-color="#FF1CF7"/>
<stop offset="1" stop-color="#00B0FF" stop-opacity="0.1"/>
</linearGradient>
<linearGradient id="paint7_linear_2_462" x1="1616.77" y1="1293.74" x2="2606.7" y2="183.563" gradientUnits="userSpaceOnUse">
<stop stop-color="#FF1CF7"/>
<stop offset="1" stop-color="#00B0FF" stop-opacity="0.1"/>
</linearGradient>
<linearGradient id="paint8_linear_2_462" x1="1563.85" y1="1272.06" x2="2594.57" y2="232.487" gradientUnits="userSpaceOnUse">
<stop stop-color="#FF1CF7"/>
<stop offset="1" stop-color="#00B0FF" stop-opacity="0.1"/>
</linearGradient>
<linearGradient id="paint9_linear_2_462" x1="1512.74" y1="1249.43" x2="2579.2" y2="280.935" gradientUnits="userSpaceOnUse">
<stop stop-color="#FF1CF7"/>
<stop offset="1" stop-color="#00B0FF" stop-opacity="0.1"/>
</linearGradient>
<linearGradient id="paint10_linear_2_462" x1="1463.45" y1="1226" x2="2560.84" y2="328.671" gradientUnits="userSpaceOnUse">
<stop stop-color="#FF1CF7"/>
<stop offset="1" stop-color="#00B0FF" stop-opacity="0.1"/>
</linearGradient>
<linearGradient id="paint11_linear_2_462" x1="1416.02" y1="1201.86" x2="2539.71" y2="375.5" gradientUnits="userSpaceOnUse">
<stop stop-color="#FF1CF7"/>
<stop offset="1" stop-color="#00B0FF" stop-opacity="0.1"/>
</linearGradient>
<linearGradient id="paint12_linear_2_462" x1="1370.45" y1="1177.16" x2="2516.07" y2="421.271" gradientUnits="userSpaceOnUse">
<stop stop-color="#FF1CF7"/>
<stop offset="1" stop-color="#00B0FF" stop-opacity="0.1"/>
</linearGradient>
<linearGradient id="paint13_linear_2_462" x1="1326.75" y1="1152" x2="2490.16" y2="465.874" gradientUnits="userSpaceOnUse">
<stop stop-color="#FF1CF7"/>
<stop offset="1" stop-color="#00B0FF" stop-opacity="0.1"/>
</linearGradient>
<linearGradient id="paint14_linear_2_462" x1="1284.93" y1="1126.5" x2="2462.21" y2="509.238" gradientUnits="userSpaceOnUse">
<stop stop-color="#FF1CF7"/>
<stop offset="1" stop-color="#00B0FF" stop-opacity="0.1"/>
</linearGradient>
<linearGradient id="paint15_linear_2_462" x1="1244.98" y1="1100.8" x2="2432.47" y2="551.325" gradientUnits="userSpaceOnUse">
<stop stop-color="#FF1CF7"/>
<stop offset="1" stop-color="#00B0FF" stop-opacity="0.1"/>
</linearGradient>
<linearGradient id="paint16_linear_2_462" x1="1206.89" y1="1075" x2="2401.14" y2="592.13" gradientUnits="userSpaceOnUse">
<stop stop-color="#FF1CF7"/>
<stop offset="1" stop-color="#00B0FF" stop-opacity="0.1"/>
</linearGradient>
<linearGradient id="paint17_linear_2_462" x1="1170.65" y1="1049.22" x2="2368.44" y2="631.674" gradientUnits="userSpaceOnUse">
<stop stop-color="#FF1CF7"/>
<stop offset="1" stop-color="#00B0FF" stop-opacity="0.1"/>
</linearGradient>
<linearGradient id="paint18_linear_2_462" x1="1136.23" y1="1023.59" x2="2334.53" y2="669.999" gradientUnits="userSpaceOnUse">
<stop stop-color="#FF1CF7"/>
<stop offset="1" stop-color="#00B0FF" stop-opacity="0.1"/>
</linearGradient>
<linearGradient id="paint19_linear_2_462" x1="1103.6" y1="998.194" x2="2299.59" y2="707.167" gradientUnits="userSpaceOnUse">
<stop stop-color="#FF1CF7"/>
<stop offset="1" stop-color="#00B0FF" stop-opacity="0.1"/>
</linearGradient>
<linearGradient id="paint20_linear_2_462" x1="1072.73" y1="973.16" x2="2263.75" y2="743.255" gradientUnits="userSpaceOnUse">
<stop stop-color="#FF1CF7"/>
<stop offset="1" stop-color="#00B0FF" stop-opacity="0.1"/>
</linearGradient>
<linearGradient id="paint21_linear_2_462" x1="1043.59" y1="948.588" x2="2227.14" y2="778.351" gradientUnits="userSpaceOnUse">
<stop stop-color="#FF1CF7"/>
<stop offset="1" stop-color="#00B0FF" stop-opacity="0.1"/>
</linearGradient>
<linearGradient id="paint22_linear_2_462" x1="1016.12" y1="924.58" x2="2189.84" y2="812.549" gradientUnits="userSpaceOnUse">
<stop stop-color="#FF1CF7"/>
<stop offset="1" stop-color="#00B0FF" stop-opacity="0.1"/>
</linearGradient>
<linearGradient id="paint23_linear_2_462" x1="990.273" y1="901.236" x2="2151.93" y2="845.948" gradientUnits="userSpaceOnUse">
<stop stop-color="#FF1CF7"/>
<stop offset="1" stop-color="#00B0FF" stop-opacity="0.1"/>
</linearGradient>
<linearGradient id="paint24_linear_2_462" x1="966.005" y1="878.648" x2="2113.46" y2="878.648" gradientUnits="userSpaceOnUse">
<stop stop-color="#FF1CF7"/>
<stop offset="1" stop-color="#00B0FF" stop-opacity="0.1"/>
</linearGradient>
<linearGradient id="paint25_linear_2_462" x1="943.253" y1="856.906" x2="2074.46" y2="910.745" gradientUnits="userSpaceOnUse">
<stop stop-color="#FF1CF7"/>
<stop offset="1" stop-color="#00B0FF" stop-opacity="0.1"/>
</linearGradient>
<linearGradient id="paint26_linear_2_462" x1="921.954" y1="836.096" x2="2034.94" y2="942.331" gradientUnits="userSpaceOnUse">
<stop stop-color="#FF1CF7"/>
<stop offset="1" stop-color="#00B0FF" stop-opacity="0.1"/>
</linearGradient>
<linearGradient id="paint27_linear_2_462" x1="902.042" y1="816.298" x2="1994.9" y2="973.49" gradientUnits="userSpaceOnUse">
<stop stop-color="#FF1CF7"/>
<stop offset="1" stop-color="#00B0FF" stop-opacity="0.1"/>
</linearGradient>
<linearGradient id="paint28_linear_2_462" x1="883.447" y1="797.587" x2="1954.32" y2="1004.3" gradientUnits="userSpaceOnUse">
<stop stop-color="#FF1CF7"/>
<stop offset="1" stop-color="#00B0FF" stop-opacity="0.1"/>
</linearGradient>
<linearGradient id="paint29_linear_2_462" x1="866.096" y1="780.032" x2="1913.15" y2="1034.82" gradientUnits="userSpaceOnUse">
<stop stop-color="#FF1CF7"/>
<stop offset="1" stop-color="#00B0FF" stop-opacity="0.1"/>
</linearGradient>
<linearGradient id="paint30_linear_2_462" x1="849.913" y1="763.697" x2="1871.34" y2="1065.09" gradientUnits="userSpaceOnUse">
<stop stop-color="#FF1CF7"/>
<stop offset="1" stop-color="#00B0FF" stop-opacity="0.1"/>
</linearGradient>
<linearGradient id="paint31_linear_2_462" x1="834.819" y1="748.643" x2="1828.85" y2="1095.17" gradientUnits="userSpaceOnUse">
<stop stop-color="#FF1CF7"/>
<stop offset="1" stop-color="#00B0FF" stop-opacity="0.1"/>
</linearGradient>
<linearGradient id="paint32_linear_2_462" x1="820.733" y1="734.921" x2="1785.59" y2="1125.04" gradientUnits="userSpaceOnUse">
<stop stop-color="#FF1CF7"/>
<stop offset="1" stop-color="#00B0FF" stop-opacity="0.1"/>
</linearGradient>
<linearGradient id="paint33_linear_2_462" x1="807.572" y1="722.579" x2="1741.5" y2="1154.73" gradientUnits="userSpaceOnUse">
<stop stop-color="#FF1CF7"/>
<stop offset="1" stop-color="#00B0FF" stop-opacity="0.1"/>
</linearGradient>
<linearGradient id="paint34_linear_2_462" x1="795.251" y1="711.659" x2="1696.5" y2="1184.2" gradientUnits="userSpaceOnUse">
<stop stop-color="#FF1CF7"/>
<stop offset="1" stop-color="#00B0FF" stop-opacity="0.1"/>
</linearGradient>
<linearGradient id="paint35_linear_2_462" x1="783.684" y1="702.195" x2="1650.51" y2="1213.41" gradientUnits="userSpaceOnUse">
<stop stop-color="#FF1CF7"/>
<stop offset="1" stop-color="#00B0FF" stop-opacity="0.1"/>
</linearGradient>
<linearGradient id="paint36_linear_2_462" x1="772.784" y1="694.218" x2="1603.46" y2="1242.3" gradientUnits="userSpaceOnUse">
<stop stop-color="#FF1CF7"/>
<stop offset="1" stop-color="#00B0FF" stop-opacity="0.1"/>
</linearGradient>
<linearGradient id="paint37_linear_2_462" x1="762.463" y1="687.75" x2="1555.28" y2="1270.79" gradientUnits="userSpaceOnUse">
<stop stop-color="#FF1CF7"/>
<stop offset="1" stop-color="#00B0FF" stop-opacity="0.1"/>
</linearGradient>
<linearGradient id="paint38_linear_2_462" x1="752.633" y1="682.808" x2="1505.93" y2="1298.78" gradientUnits="userSpaceOnUse">
<stop stop-color="#FF1CF7"/>
<stop offset="1" stop-color="#00B0FF" stop-opacity="0.1"/>
</linearGradient>
<linearGradient id="paint39_linear_2_462" x1="743.205" y1="679.405" x2="1455.36" y2="1326.14" gradientUnits="userSpaceOnUse">
<stop stop-color="#FF1CF7"/>
<stop offset="1" stop-color="#00B0FF" stop-opacity="0.1"/>
</linearGradient>
<linearGradient id="paint40_linear_2_462" x1="734.093" y1="677.546" x2="1403.55" y2="1352.75" gradientUnits="userSpaceOnUse">
<stop stop-color="#FF1CF7"/>
<stop offset="1" stop-color="#00B0FF" stop-opacity="0.1"/>
</linearGradient>
<linearGradient id="paint41_linear_2_462" x1="725.206" y1="677.229" x2="1350.49" y2="1378.46" gradientUnits="userSpaceOnUse">
<stop stop-color="#FF1CF7"/>
<stop offset="1" stop-color="#00B0FF" stop-opacity="0.1"/>
</linearGradient>
<linearGradient id="paint42_linear_2_462" x1="716.462" y1="678.45" x2="1296.2" y2="1403.09" gradientUnits="userSpaceOnUse">
<stop stop-color="#FF1CF7"/>
<stop offset="1" stop-color="#00B0FF" stop-opacity="0.1"/>
</linearGradient>
<linearGradient id="paint43_linear_2_462" x1="707.774" y1="681.196" x2="1240.74" y2="1426.5" gradientUnits="userSpaceOnUse">
<stop stop-color="#FF1CF7"/>
<stop offset="1" stop-color="#00B0FF" stop-opacity="0.1"/>
</linearGradient>
<linearGradient id="paint44_linear_2_462" x1="699.058" y1="685.449" x2="1184.17" y2="1448.51" gradientUnits="userSpaceOnUse">
<stop stop-color="#FF1CF7"/>
<stop offset="1" stop-color="#00B0FF" stop-opacity="0.1"/>
</linearGradient>
<linearGradient id="paint45_linear_2_462" x1="690.233" y1="691.186" x2="1126.61" y2="1468.95" gradientUnits="userSpaceOnUse">
<stop stop-color="#FF1CF7"/>
<stop offset="1" stop-color="#00B0FF" stop-opacity="0.1"/>
</linearGradient>
<linearGradient id="paint46_linear_2_462" x1="681.22" y1="698.381" x2="1068.18" y2="1487.67" gradientUnits="userSpaceOnUse">
<stop stop-color="#FF1CF7"/>
<stop offset="1" stop-color="#00B0FF" stop-opacity="0.1"/>
</linearGradient>
<linearGradient id="paint47_linear_2_462" x1="671.94" y1="706.999" x2="1009.05" y2="1504.52" gradientUnits="userSpaceOnUse">
<stop stop-color="#FF1CF7"/>
<stop offset="1" stop-color="#00B0FF" stop-opacity="0.1"/>
</linearGradient>
<linearGradient id="paint48_linear_2_462" x1="662.32" y1="717.003" x2="949.402" y2="1519.39" gradientUnits="userSpaceOnUse">
<stop stop-color="#FF1CF7"/>
<stop offset="1" stop-color="#00B0FF" stop-opacity="0.1"/>
</linearGradient>
<linearGradient id="paint49_linear_2_462" x1="652.288" y1="728.349" x2="889.457" y2="1532.17" gradientUnits="userSpaceOnUse">
<stop stop-color="#FF1CF7"/>
<stop offset="1" stop-color="#00B0FF" stop-opacity="0.1"/>
</linearGradient>
<linearGradient id="paint50_linear_2_462" x1="641.776" y1="740.992" x2="829.443" y2="1542.79" gradientUnits="userSpaceOnUse">
<stop stop-color="#FF1CF7"/>
<stop offset="1" stop-color="#00B0FF" stop-opacity="0.1"/>
</linearGradient>
<linearGradient id="paint51_linear_2_462" x1="630.718" y1="754.879" x2="769.604" y2="1551.22" gradientUnits="userSpaceOnUse">
<stop stop-color="#FF1CF7"/>
<stop offset="1" stop-color="#00B0FF" stop-opacity="0.1"/>
</linearGradient>
<linearGradient id="paint52_linear_2_462" x1="619.053" y1="769.956" x2="710.196" y2="1557.46" gradientUnits="userSpaceOnUse">
<stop stop-color="#FF1CF7"/>
<stop offset="1" stop-color="#00B0FF" stop-opacity="0.1"/>
</linearGradient>
<linearGradient id="paint53_linear_2_462" x1="606.724" y1="786.165" x2="651.47" y2="1561.55" gradientUnits="userSpaceOnUse">
<stop stop-color="#FF1CF7"/>
<stop offset="1" stop-color="#00B0FF" stop-opacity="0.1"/>
</linearGradient>
<linearGradient id="paint54_linear_2_462" x1="593.674" y1="803.442" x2="593.674" y2="1563.57" gradientUnits="userSpaceOnUse">
<stop stop-color="#FF1CF7"/>
<stop offset="1" stop-color="#00B0FF" stop-opacity="0.1"/>
</linearGradient>
<clipPath id="clip0_2_462">
<rect width="1616" height="960" fill="white"/>
</clipPath>
</defs>
</svg>
